<?xml version="1.0" standalone="no"?>
<!DOCTYPE svg PUBLIC "-//W3C//DTD SVG 20010904//EN"
 "http://www.w3.org/TR/2001/REC-SVG-20010904/DTD/svg10.dtd">
<svg version="1.0" xmlns="http://www.w3.org/2000/svg"
 width="1000.000000pt" height="444.000000pt" viewBox="0 0 1000.000000 444.000000"
 preserveAspectRatio="xMidYMid meet">

<g transform="translate(0.000000,444.000000) scale(0.100000,-0.100000)"
fill="#000000" stroke="none">
<path d="M10 2215 l0 -2215 2225 0 2225 0 -2 2213 -3 2212 -2222 3 -2223 2 0
-2215z m1638 1073 l2 -538 140 0 140 0 0 -140 0 -140 -635 0 -635 0 0 140 0
140 350 0 350 0 0 395 0 395 -280 0 -280 0 0 145 0 145 423 -2 422 -3 3 -537z
m2012 397 l0 -145 -490 0 -490 0 0 145 0 145 490 0 490 0 0 -145z m130 -1075
l0 -140 -630 0 -630 0 0 133 c0 74 3 137 7 140 3 4 287 7 630 7 l623 0 0 -140z
m-1864 -687 c-128 -617 -277 -1317 -281 -1324 -4 -5 -233 -9 -566 -9 -440 0
-559 3 -559 13 0 6 12 72 26 145 l27 132 423 0 c233 0 424 4 424 8 0 5 36 179
80 387 44 208 80 382 80 387 0 5 -125 7 -277 6 l-277 -3 -41 -195 -41 -195
-142 -3 c-115 -2 -142 0 -142 11 0 8 32 160 70 338 39 178 70 325 70 326 0 2
255 3 566 3 l566 0 -6 -27z m1864 -653 l0 -680 -627 2 -628 3 -3 678 -2 677
630 0 630 0 0 -680z"/>
<path d="M2820 1275 l0 -395 350 0 350 0 0 395 0 395 -350 0 -350 0 0 -395z"/>
<path d="M5560 2215 l0 -2215 2220 0 2220 0 0 2215 0 2215 -2220 0 -2220 0 0
-2215z m850 1104 l5 -506 28 -36 c85 -111 256 -97 316 25 21 43 21 55 21 536
l0 493 138 -3 137 -3 3 -475 c3 -528 -1 -573 -54 -680 -123 -245 -442 -324
-676 -167 -80 53 -150 145 -180 235 -22 65 -22 80 -26 566 -2 274 -1 504 2
512 5 12 31 14 143 12 l138 -3 5 -506z m1490 118 c97 -213 180 -391 184 -394
3 -4 6 172 6 390 l0 397 140 0 140 0 0 -705 0 -705 -142 0 -143 1 -180 395
-180 395 -3 -396 -2 -395 -145 0 -145 0 0 698 c0 384 3 702 7 706 4 3 69 5
146 4 l139 -3 178 -388z m1220 -312 l0 -706 -142 3 -143 3 -3 690 c-1 380 0
696 3 703 3 9 42 12 145 12 l140 0 0 -705z m-2439 -1135 c130 -25 260 -120
322 -237 48 -90 57 -160 57 -458 0 -337 -10 -389 -102 -523 l-29 -42 56 -183
c31 -100 60 -194 65 -209 l9 -28 -139 0 -139 0 -48 146 -48 146 -46 -5 c-238
-28 -474 157 -509 398 -13 92 -13 522 0 605 42 264 290 439 551 390z m1039
-550 l0 -560 325 0 325 0 0 -145 0 -145 -467 2 -468 3 -3 703 -2 702 145 0
145 0 0 -560z m1352 549 c164 -34 299 -157 348 -318 18 -57 20 -93 20 -376 0
-279 -2 -320 -19 -374 -67 -216 -289 -355 -512 -321 -195 31 -357 193 -388
390 -14 85 -14 536 0 620 42 258 295 432 551 379z"/>
<path d="M6515 1702 c-46 -22 -79 -55 -94 -95 -7 -18 -11 -134 -11 -309 0
-310 3 -326 64 -373 74 -56 173 -53 243 8 61 54 63 66 63 369 0 256 -1 274
-21 316 -42 87 -156 126 -244 84z"/>
<path d="M8892 1699 c-25 -12 -55 -39 -70 -62 l-27 -40 -3 -276 c-2 -178 0
-289 7 -312 14 -47 78 -105 133 -120 78 -21 176 22 216 94 15 28 17 64 17 317
0 320 0 321 -78 383 -51 42 -132 48 -195 16z"/>
</g>
</svg>
